PathFileType	4	(X/Y/Z)	C:/Users/beibeiliu/ov580/test_trc/User1\sequence.23_training_dense_left.trc
DataRate	CameraRate	NumFrames	NumMarkers	Units	OrigDataRate	OrigDataStartFrame	OrigNumFrames
120	120	15	19	mm	120	151	240
Frame#	Time	ThumbCMC			ThumbMCP			ThumbIP			ThumbTip			IndexMCP			IndexPIP			IndexTip			MiddleMCP			MiddlePIP			MiddleTip			RingMCP			RingPIP			RingTip			PinkyMCP			PinkyPIP			PinkyTip			BackHand1			BackHand2			BackHand3	
		X0	Y0	Z0	X1	Y1	Z1	X2	Y2	Z2	X3	Y3	Z3	X4	Y4	Z4	X5	Y5	Z5	X6	Y6	Z6	X7	Y7	Z7	X8	Y8	Z8	X9	Y9	Z9	X10	Y10	Z10	X11	Y11	Z11	X12	Y12	Z12	X13	Y13	Z13	X14	Y14	Z14	X15	Y15	Z15	X16	Y16	Z16	X17	Y17	Z17	X18	Y18	Z18	
150	1.25	-142.105	39.6757	28.9453	-121.904	32.9802	-6.23471	-118.797	21.0756	-29.9157	-123.548	-8.87145	-44.6204	-168.771	23.5075	-41.2847	-137.242	12.1142	-45.8985	-137.613	18.7081	-10.0961	-173.383	-3.70449	-40.1753	-139.149	-10.9002	-37.448	-134.098	1.11127	-4.14561	-174.343	-20.2807	-34.9853	-141.45	-26.3364	-33.0423	-133.477	-15.7192	-3.28871	-195.027	-42.8624	-8.90733	-198.212	-50.695	-27.9951	-211.723	-59.7325	-46.7486	-193.015	-5.45159	29.8392	-183.769	-3.38774	61.337	-181.02	30.6956	38.6148	
151	1.25833	-131.753	40.8728	28.7545	-116.746	28.7563	-2.48201	-113.777	16.8829	-32.3511	-124.256	-10.5455	-40.0657	-160.142	27.4577	-41.4496	-132.808	8.6413	-44.9522	-133.698	17.2118	-8.81911	-170.715	0.802703	-39.1602	-136.638	-12.384	-39.9067	-132.022	0.0603434	-1.35454	-172.886	-19.6591	-36.283	-140.993	-26.6553	-32.7517	-132.832	-19.3945	-4.02987	-196.296	-34.5839	-14.3794	-200.764	-45.4419	-29.2091	-211.883	-51.8313	-45.6352	-195.613	-1.59298	24.8248	-185.424	-0.884095	59.4712	-176.715	30.0287	34.2188	
152	1.26667	-126.171	36.4638	30.4113	-107.116	25.5536	1.63879	-106.473	14.3556	-27.5896	-119.104	-11.8151	-41.1529	-149.624	29.2854	-43.2599	-125.629	9.04138	-44.2021	-127.066	13.8086	-9.88559	-165.397	3.68507	-42.204	-133.358	-11.266	-41.123	-129.945	-4.2984	-2.26472	-172.665	-13.8318	-35.4924	-142.274	-28.0565	-34.2757	-134.965	-19.5037	0.451874	-198.067	-32.6792	-14.1371	-201.307	-37.5954	-33.7978	-212.308	-44.5973	-52.1956	-190.85	3.64886	25.2609	-183.362	6.47164	58.3465	-169.935	32.8112	36.4316	
153	1.275	-123.268	31.537	32.8003	-101.588	22.1783	1.03099	-106.219	9.00876	-25.3584	-116.136	-14.3802	-38.6555	-148.179	27.6596	-40.6802	-121.293	5.08285	-42.5687	-126.233	12.2248	-7.20436	-158.474	5.68689	-45.0554	-132.032	-14.8059	-39.5702	-126.618	-4.13256	-1.64198	-172.832	-15.4469	-34.602	-139.081	-30.0567	-31.8137	-132.696	-21.2742	-2.54586	-195.627	-26.064	-17.2367	-201.402	-37.7479	-36.4849	-210.879	-41.5286	-54.4575	-190.836	5.03619	20.4538	-183.267	5.27125	59.2159	-166.083	33.6872	37.809	
154	1.28333	-119.597	28.3414	34.4049	-97.1919	17.5763	1.1813	-100.312	4.36609	-27.9092	-118.187	-17.1502	-34.882	-137.687	27.2702	-44.146	-121.482	0.682891	-41.8319	-122.404	7.09771	-8.32069	-157.392	4.02702	-42.6369	-128.456	-15.5118	-39.1138	-126.248	-6.17839	1.45188	-167.704	-9.9219	-35.0483	-139.043	-32.1323	-29.0624	-134.558	-23.5583	1.31255	-195.324	-25.2042	-16.4229	-198.708	-31.1072	-39.2059	-205.974	-38.2258	-56.0956	-186.121	9.82348	21.9108	-181.222	6.27204	58.9488	-159.883	34.3875	34.3424	
155	1.29167	-115.247	25.3417	39.4313	-99.1373	12.302	4.98497	-97.0667	0.910913	-22.2704	-116.359	-21.9594	-37.1805	-132.312	27.7754	-39.5196	-114.019	-0.408226	-41.4981	-117.861	6.27122	-6.00318	-153.125	5.43093	-42.496	-124.864	-17.8034	-35.1605	-125.924	-11.5009	1.10943	-164.278	-10.4978	-35.8893	-139.768	-34.239	-30.7019	-134.045	-24.5095	2.56144	-193.497	-21.8271	-21.541	-196.637	-31.5389	-38.8429	-202.488	-35.6057	-60.1052	-183.776	12.6938	21.7442	-180.015	10.6133	59.4962	-159.288	33.1454	38.6612	
156	1.3	-114.03	23.9938	37.6371	-97.369	10.9848	8.11346	-94.8876	-0.473053	-21.8879	-109.767	-24.3393	-37.0392	-133.601	21.5264	-41.5237	-116.751	-4.14368	-40.7795	-117.722	3.77157	-6.36602	-152.244	1.08868	-43.7185	-127.197	-21.6565	-36.9502	-126.854	-13.654	2.97597	-165.313	-16.3503	-36.9347	-136.208	-32.524	-29.2424	-135.154	-25.2174	4.21662	-191.271	-18.9865	-17.6037	-194.162	-27.9608	-38.4976	-199.162	-37.5193	-62.0752	-183.148	10.6708	20.4315	-178.676	10.2221	56.4158	-157.99	31.7952	34.5834	
157	1.30833	-111.843	23.0941	41.6525	-94.9814	8.06525	12.0823	-93.9634	-2.65216	-19.8706	-112.036	-23.591	-33.5503	-129.984	24.0523	-39.5559	-115.566	-3.62425	-41.9699	-115.066	3.80303	-5.5661	-154.37	2.1517	-40.6247	-125.725	-22.1529	-37.4216	-127.065	-14.2678	3.77692	-166.611	-17.5094	-34.6562	-138.535	-34.5075	-29.3555	-136.621	-26.5953	4.74364	-193.842	-21.633	-19.0658	-194.283	-28.8949	-39.3622	-189.997	-36.1713	-64.8293	-185.543	8.51891	20.1747	-181.634	7.64284	56.8978	-153.737	32.8473	38.0003	
158	1.31667	-115.092	20.6084	38.7942	-94.6958	7.49685	7.96554	-96.3841	-4.2661	-16.0899	-109.202	-25.0891	-33.5423	-131.92	20.4049	-41.4402	-115.267	-6.27412	-40.8502	-116.938	0.128447	-6.10717	-150.039	-0.151583	-44.2247	-127.776	-23.517	-39.9443	-126.335	-18.809	0.324566	-164.795	-19.6015	-37.6867	-138.076	-36.2814	-30.0208	-135.871	-31.6147	2.49717	-194.999	-24.2609	-19.7159	-195.958	-34.0269	-37.6441	-189.306	-43.0628	-65.1958	-183.424	7.44895	23.281	-183.053	6.7243	57.514	-155.659	32.3636	36.4732	
159	1.325	-114.456	19.4585	41.0442	-95.3264	6.27632	6.79325	-96.9715	-5.79756	-20.6611	-112.016	-28.2612	-34.3765	-131.035	21.2375	-38.6406	-113.715	-8.8817	-39.6843	-118.364	-3.29915	-7.44538	-154.724	-1.74326	-41.4356	-129.396	-27.8963	-36.4753	-126.266	-18.4202	1.66097	-167.326	-21.1376	-34.5189	-137.794	-37.8557	-29.6569	-135.55	-30.0144	3.24449	-193.832	-24.9428	-19.2344	-192.893	-34.9842	-39.4367	-190.12	-42.1784	-63.5211	-186.352	6.6865	23.2922	-184.468	6.5625	55.8978	-159.059	29.0485	35.0122	
160	1.33333	-117.239	17.4506	41.7424	-97.203	4.93654	9.71059	-95.2795	-8.07104	-18.9618	-114.069	-31.7746	-35.3863	-134.809	15.8164	-41.6002	-116.358	-10.8355	-41.9933	-117.319	-3.24132	-4.3935	-152.129	-4.51959	-43.1444	-128.548	-28.2752	-35.9556	-128.287	-18.969	4.29019	-167.619	-20.5625	-33.322	-139.502	-43.9025	-24.6681	-136.911	-33.9051	3.99355	-194.372	-29.7598	-16.7853	-193.773	-42.8436	-41.9301	-186.049	-48.8188	-66.6483	-184.811	8.03086	18.7215	-180.974	6.63754	55.8446	-157.671	30.2976	37.0734	
161	1.34167	-118.2	17.2095	40.9354	-94.5277	3.45516	9.4934	-96.8059	-9.84832	-18.38	-111.897	-32.7111	-34.7508	-132.308	16.2222	-39.6038	-115.575	-11.2948	-42.9573	-119.38	-4.98842	-4.50944	-154.995	-5.6949	-39.7826	-130.687	-31.7145	-35.625	-127.652	-23.4946	3.19612	-167.011	-25.8542	-34.7982	-139.039	-42.1153	-26.8389	-138.218	-33.3942	7.60179	-193.365	-31.3686	-16.0733	-190.73	-41.7824	-38.6004	-185.348	-55.0084	-61.7241	-186.257	4.26978	18.498	-185.997	2.51108	53.7126	-161.657	26.0923	34.5102	
162	1.35	-120.212	17.6731	38.6071	-97.2521	3.29971	7.96192	-94.1833	-10.4676	-16.5119	-109.358	-32.0261	-32.3137	-133.038	13.9017	-41.4503	-116.739	-16.6251	-37.3787	-119.513	-4.50571	-3.10587	-153.394	-10.167	-42.9067	-125.559	-32.0309	-33.78	-124.386	-22.5849	3.24246	-162.926	-27.7941	-35.2382	-139.882	-45.4442	-24.5986	-136.906	-35.7826	6.8911	-193.381	-35.5749	-19.7119	-189.876	-49.7239	-38.3008	-178.41	-61.5133	-63.1039	-187.365	2.62506	19.8414	-185.938	3.73293	52.6469	-158.774	28.4453	35.5154	
163	1.35833	-119.769	19.31	36.2712	-99.0994	4.1274	10.2573	-97.4917	-11.1692	-20.9729	-108.947	-34.3016	-32.9197	-134.902	9.88066	-41.8135	-117.95	-17.9954	-37.2156	-120.407	-6.78535	-4.61206	-153.19	-11.2832	-42.5334	-130.616	-34.8192	-34.9111	-124.282	-23.6491	2.0345	-167.351	-28.7939	-32.6265	-139.64	-45.9926	-26.4262	-135.426	-32.7497	6.82982	-191.022	-36.6117	-18.0082	-187.282	-50.8899	-37.7596	-176.898	-63.322	-56.6657	-189.964	1.93379	20.4005	-184.244	5.03648	54.9131	-159.662	27.1782	35.2782	
164	1.36667	-122.356	18.5584	34.9209	-100.271	3.66552	9.14326	-101.674	-11.73	-18.3485	-110.614	-35.4763	-33.6232	-134.528	7.59544	-43.8249	-116.653	-18.0653	-38.2781	-121.583	-7.33561	-5.98326	-154.755	-10.7257	-41.8719	-129.885	-35.8639	-33.1992	-128.79	-23.4039	4.83529	-167.366	-30.8777	-32.9155	-141.536	-50.2314	-23.7649	-136.166	-35.7156	5.08637	-192.565	-40.5613	-15.2798	-184.455	-53.245	-38.7609	-170.163	-64.8552	-59.3731	-189.502	-1.15318	20.3459	-187.979	1.63891	56.7147	-163.162	26.942	30.7575	
